<?xml version="1.0" encoding="UTF-8"?>
<!-- Generated by Pixelmator Pro 3.5.7 -->
<svg width="95" height="96" viewBox="0 0 95 96" xmlns="http://www.w3.org/2000/svg">
    <g id="Group">
        <path id="Oval" fill="#ff78ff" fill-rule="evenodd" stroke="#ff78ff" stroke-width="3" stroke-linecap="round" stroke-linejoin="round" d="M 37 94 L 25 90 L 28 79 L 18 68 L 6 72 L 2 61 L 13 55 L 13 41 L 2 35 L 6 24 L 18 27 L 28 19 L 25 6 L 37 2 L 42 13 L 53 13 L 58 2 L 70 6 L 67 19 L 77 27 L 89 24 L 93 35 L 82 41 L 82 55 L 93 61 L 89 72 L 77 68 L 67 79 L 70 90 L 58 94 L 53 83 L 42 83 L 37 94 Z M 47.5 63 C 55.784264 63 62.5 56.284264 62.5 48 C 62.5 39.715736 55.784264 33 47.5 33 C 39.215736 33 32.5 39.715736 32.5 48 C 32.5 56.284264 39.215736 63 47.5 63 Z"/>
    </g>
</svg>
