<?xml version="1.0" encoding="UTF-8"?>
<!-- Generated by Pixelmator Pro 3.5.7 -->
<svg width="102" height="202" viewBox="0 0 102 202" xmlns="http://www.w3.org/2000/svg">
    <g id="Group">
        <path id="Path" fill="none" stroke="#ff00ff" stroke-width="3" stroke-linecap="round" stroke-linejoin="round" d="M 1 149 L 51 200 L 100.000641 149.00061 L 100.000008 53 L 80 24 L 51 3 L 21 23.999985 L 1 53 L 1 149"/>
        <path id="path1" fill="none" stroke="#ff00ff" stroke-width="3" stroke-linecap="round" stroke-linejoin="round" d="M 14 161 L 23 134 L 3 149"/>
        <path id="path2" fill="none" stroke="#ff00ff" stroke-width="3" stroke-linecap="round" stroke-linejoin="round" d="M 28 176 L 40 165 L 38 186 L 81 168 L 73 129 L 50 92 L 28 63"/>
        <path id="path3" fill="none" stroke="#ff00ff" stroke-width="3" stroke-linecap="round" stroke-linejoin="round" d="M 63 165 L 73 176"/>
        <path id="path4" fill="none" stroke="#ff00ff" stroke-width="3" stroke-linecap="round" stroke-linejoin="round" d="M 40 164 L 51 145 L 99 112"/>
        <path id="path5" fill="none" stroke="#ff00ff" stroke-width="3" stroke-linecap="round" stroke-linejoin="round" d="M 99 149 L 78.999916 133.000092"/>
        <path id="path6" fill="none" stroke="#ff00ff" stroke-width="3" stroke-linecap="round" stroke-linejoin="round" d="M 2 97 L 23 68 L 2 52"/>
        <path id="path7" fill="none" stroke="#ff00ff" stroke-width="3" stroke-linecap="round" stroke-linejoin="round" d="M 39 12 L 28 64 L 28 121 L 51 143 L 50 89 L 73 54 L 52 5"/>
        <path id="path8" fill="none" stroke="#ff00ff" stroke-width="3" stroke-linecap="round" stroke-linejoin="round" d="M 24 134 L 28 121"/>
        <path id="path9" fill="none" stroke="#ff00ff" stroke-width="3" stroke-linecap="round" stroke-linejoin="round" d="M 73 129 L 88 74 L 94 45"/>
        <path id="path10" fill="none" stroke="#ff00ff" stroke-width="3" stroke-linecap="round" stroke-linejoin="round" d="M 23 24 L 39 37"/>
        <path id="path11" fill="none" stroke="#ff00ff" stroke-width="3" stroke-linecap="round" stroke-linejoin="round" d="M 7 46 L 29 54"/>
        <path id="path12" fill="none" stroke="#ff00ff" stroke-width="3" stroke-linecap="round" stroke-linejoin="round" d="M 66 35 L 78 24"/>
        <path id="path13" fill="none" stroke="#ff00ff" stroke-width="3" stroke-linecap="round" stroke-linejoin="round" d="M 73 19 L 72 47 L 88 74"/>
        <path id="path14" fill="none" stroke="#ff00ff" stroke-width="3" stroke-linecap="round" stroke-linejoin="round" d="M 80 69 L 99 53"/>
        <path id="path15" fill="none" stroke="#ff00ff" stroke-width="3" stroke-linecap="round" stroke-linejoin="round" d="M 80 80 L 99 99"/>
        <path id="path16" fill="none" stroke="#ff00ff" stroke-width="3" stroke-linecap="round" stroke-linejoin="round" d="M 63.599998 164 L 39.400002 164 L 24 132.807693 L 24 68.192307 L 39.400002 37 L 63.599998 37 L 79 68.192307 L 79 132.807693 L 63.599998 164 Z"/>
    </g>
</svg>
